<?xml version="1.0" standalone="no"?>
<!DOCTYPE svg PUBLIC "-//W3C//DTD SVG 20010904//EN"
 "http://www.w3.org/TR/2001/REC-SVG-20010904/DTD/svg10.dtd">
<svg version="1.0" xmlns="http://www.w3.org/2000/svg"
 width="512.000000pt" height="455.000000pt" viewBox="0 0 512.000000 455.000000"
 preserveAspectRatio="xMidYMid meet">
<metadata>
Created by potrace 1.15, written by Peter Selinger 2001-2017
</metadata>
<g transform="translate(0.000000,455.000000) scale(0.100000,-0.100000)"
fill="#000000" stroke="none">
<path d="M2568 3828 l-3 -533 -80 -7 c-502 -41 -914 -453 -960 -960 l-7 -78
-529 0 c-464 0 -529 -2 -529 -15 0 -13 65 -15 529 -15 l528 0 11 -98 c58 -504
438 -885 944 -944 l98 -12 0 -527 c0 -459 2 -528 15 -533 13 -5 15 58 15 528
l0 534 78 7 c175 16 376 90 519 191 249 177 416 467 441 766 l7 83 533 3 c462
2 532 4 532 17 0 13 -70 15 -532 17 l-533 3 -3 35 c-14 202 -73 377 -180 539
-49 74 -162 192 -240 252 -154 117 -404 209 -568 209 l-54 0 0 535 c0 467 -2
535 -15 535 -13 0 -15 -68 -17 -532z m2 -1073 l0 -505 -511 0 -510 0 7 73 c15
165 82 350 175 488 80 120 219 247 349 322 118 68 314 125 433 126 l57 1 0
-505z m274 476 c93 -25 239 -92 327 -152 81 -54 203 -176 256 -254 111 -165
183 -370 183 -526 l0 -49 -505 0 -505 0 0 506 0 507 83 -6 c45 -3 117 -15 161
-26z m-276 -1518 l-3 -508 -65 3 c-221 11 -463 120 -634 287 -170 167 -278
383 -306 615 -5 46 -10 90 -10 97 0 10 103 13 510 13 l510 0 -2 -507z m1039
420 c-22 -326 -236 -647 -541 -809 -130 -69 -244 -103 -398 -119 l-68 -7 0
511 0 511 506 0 507 0 -6 -87z"/>
</g>
</svg>
